<?xml version="1.0" encoding="utf-8"?>
<!-- Generator: Adobe Illustrator 18.0.0, SVG Export Plug-In . SVG Version: 6.00 Build 0)  -->
<!DOCTYPE svg PUBLIC "-//W3C//DTD SVG 1.1//EN" "http://www.w3.org/Graphics/SVG/1.1/DTD/svg11.dtd">
<svg version="1.1" id="Layer_1" xmlns="http://www.w3.org/2000/svg" xmlns:xlink="http://www.w3.org/1999/xlink" x="0px" y="0px"
	 viewBox="0 0 389.2 361.1" enable-background="new 0 0 389.2 361.1" xml:space="preserve">
<path fill="#3D352E" d="M97.2,152.4c0,0-59.9,114.8-9.7,159.5s184.5,34.4,205.3,11.7c20.8-22.7,45.5-54.8,6.5-171.1
	S97.2,152.4,97.2,152.4z"/>
<path fill="#C8CBBF" d="M100.5,190.3c0,0-48.1,136.5,50.1,145.8s180.7,2.7,134.3-141.9S100.5,190.3,100.5,190.3z"/>
<path fill="#3D352E" d="M186.5,163.9c0,0-31,48.5-96.9,22.7s-36-159.8-36-159.8l5-26.8c0,0,34,25.8,36.9,25.8c3,0,168.8,2.1,176.8,0
	c8-2.1,29-25.8,29-25.8l22,45.4c0,0,27,108.2-6,134S199.5,188.7,186.5,163.9z"/>
<circle fill="#C8CBBF" cx="131.8" cy="120.1" r="59.3"/>
<circle fill="#D9A407" cx="140" cy="120.3" r="32.5"/>
<circle fill="#C8CBBF" cx="254.8" cy="120.1" r="59.3"/>
<polygon fill="#D9A407" points="186.7,142.1 199.7,142.1 193.2,157.7 "/>
<circle fill="#D9A407" cx="242" cy="120.3" r="32.5"/>
<circle cx="235.6" cy="119.9" r="19.1"/>
<circle cx="150.6" cy="119.9" r="19.1"/>
<circle fill="#EFE9DD" cx="153.3" cy="120.6" r="8.8"/>
<circle fill="#EFE9DD" cx="225.3" cy="120.6" r="8.8"/>
<path fill="#3D352E" d="M76.8,179.4c0,0-71.3,25.1-60,42.4s14.4,12,14.4,12s-8.2,19.8,7.2,14.6c0,0,13.2,21.3,29.3,0.9
	S110.5,165,76.8,179.4z"/>
<path fill="#3D352E" d="M310.8,183.4c0,0,71.3,25.1,60,42.4s-14.4,12-14.4,12s8.2,19.8-7.2,14.6c0,0-13.2,21.3-29.3,0.9
	C303.8,232.9,277.1,169,310.8,183.4z"/>
<ellipse fill="#D9A407" cx="136.3" cy="338.9" rx="5.2" ry="14.1"/>
<ellipse fill="#D9A407" cx="144.3" cy="338.9" rx="5.2" ry="14.1"/>
<ellipse fill="#D9A407" cx="151.3" cy="338.9" rx="5.2" ry="14.1"/>
<ellipse fill="#D9A407" cx="226.3" cy="338.9" rx="5.2" ry="14.1"/>
<ellipse fill="#D9A407" cx="234.3" cy="338.9" rx="5.2" ry="14.1"/>
<ellipse fill="#D9A407" cx="241.3" cy="338.9" rx="5.2" ry="14.1"/>
<path fill="#EAE4D6" d="M26,210.5l28.3,11.3c0,0-25.7,16.7-21,32s15.2,30.7,13.6,35.3c-1.6,4.7,7.1,19.4-3.6,35.7
	c-10.7,16.3-22,36.3-22,36.3L0,353c0,0,25.3-29.9,23.3-40.5s-14-33.3-13.3-42.7C10.7,260.5,10.7,235.8,26,210.5z"/>
<rect x="354.1" y="214.1" transform="matrix(0.5057 0.8627 -0.8627 0.5057 381.7245 -189.6846)" fill="#2E2F30" width="4.7" height="48.3"/>
<rect x="356.4" y="218.1" transform="matrix(0.5057 0.8627 -0.8627 0.5057 386.3643 -189.7303)" fill="#585959" width="4.7" height="48.3"/>
<polygon fill="#F4E8C9" points="376,223.9 389.2,221.7 380.8,232.1 "/>
<polygon fill="#585959" points="383.9,222.6 389.2,221.7 384.8,227.2 385.8,224.9 384.5,225.2 385,224.1 383.7,224 384.7,223 "/>
</svg>
